<?xml version="1.0" encoding="utf-8"?>
<!-- Generator: Adobe Illustrator 23.0.1, SVG Export Plug-In . SVG Version: 6.00 Build 0)  -->
<svg version="1.1" id="Livello_1" xmlns="http://www.w3.org/2000/svg" xmlns:xlink="http://www.w3.org/1999/xlink" x="0px" y="0px"
	 viewBox="0 0 300 119.3" style="enable-background:new 0 0 300 119.3;" xml:space="preserve">
<style type="text/css">
	.st0{fill:#2969A3;}
	.st1{fill:url(#SVGID_1_);}
</style>
<g>
	<path class="st0" d="M268,118.8v-3.6l7.4-11.5c0.5-0.8,1.1-1.6,1.5-2.4c0.5-0.8,0.9-1.6,1.2-2.4c0.3-0.8,0.5-1.7,0.5-2.7
		c0-1.1-0.2-2-0.6-2.6c-0.4-0.6-1-0.9-1.9-0.9c-0.8,0-1.4,0.2-1.9,0.7c-0.4,0.4-0.7,1-0.9,1.7c-0.2,0.7-0.2,1.5-0.2,2.4v1.3h-5v-1.3
		c0-1.8,0.3-3.3,0.8-4.7c0.5-1.3,1.4-2.4,2.5-3.2c1.2-0.8,2.7-1.1,4.6-1.1c2.6,0,4.5,0.7,5.8,2.1c1.3,1.4,1.9,3.3,1.9,5.8
		c0,1.2-0.2,2.4-0.5,3.4c-0.3,1-0.8,2-1.4,2.9c-0.6,0.9-1.2,1.9-1.9,2.8l-6.2,9.3h9.1v4.1H268z"/>
	<path class="st0" d="M292.2,119.3c-1.9,0-3.4-0.4-4.5-1.3c-1.2-0.9-2-2-2.5-3.5c-0.5-1.5-0.8-3.2-0.8-5V98.9c0-2,0.2-3.7,0.7-5.3
		c0.4-1.6,1.2-2.8,2.4-3.7c1.1-0.9,2.7-1.4,4.8-1.4c1.8,0,3.2,0.3,4.3,0.9c1.1,0.6,1.9,1.4,2.4,2.5c0.5,1.1,0.8,2.5,0.8,4.1
		c0,0.1,0,0.2,0,0.2c0,0.1,0,0.2,0,0.2h-4.9c0-1.3-0.2-2.3-0.5-3c-0.3-0.7-1-1-2.1-1c-0.6,0-1.2,0.2-1.6,0.6c-0.4,0.4-0.7,1-0.9,1.9
		c-0.2,0.9-0.3,2.1-0.3,3.6v3.6c0.3-0.6,0.9-1,1.6-1.4s1.5-0.5,2.5-0.5c1.6,0,2.9,0.3,3.9,1.1c0.9,0.7,1.6,1.8,2,3.1
		c0.4,1.3,0.6,2.8,0.6,4.5c0,2-0.2,3.7-0.7,5.2c-0.5,1.5-1.3,2.8-2.4,3.7C295.7,118.8,294.1,119.3,292.2,119.3z M292.2,115.3
		c0.7,0,1.3-0.2,1.6-0.7c0.4-0.4,0.6-1.1,0.8-1.9c0.1-0.8,0.2-1.7,0.2-2.8c0-1.1,0-2.1-0.1-2.9c-0.1-0.9-0.3-1.5-0.7-2
		c-0.4-0.5-1-0.8-1.9-0.8c-0.4,0-0.8,0.1-1.2,0.2c-0.4,0.2-0.7,0.4-0.9,0.6c-0.3,0.2-0.5,0.5-0.6,0.7v4.7c0,0.8,0.1,1.6,0.2,2.3
		c0.2,0.7,0.4,1.3,0.9,1.7C291,115.1,291.5,115.3,292.2,115.3z"/>
</g>
<linearGradient id="SVGID_1_" gradientUnits="userSpaceOnUse" x1="0" y1="59.6262" x2="300" y2="59.6262">
	<stop  offset="0" style="stop-color:#2969A3"/>
	<stop  offset="0.2258" style="stop-color:#2C6CA4"/>
	<stop  offset="0.4234" style="stop-color:#3776A8"/>
	<stop  offset="0.6104" style="stop-color:#4985AE"/>
	<stop  offset="0.7909" style="stop-color:#629CB7"/>
	<stop  offset="0.9652" style="stop-color:#83B8C1"/>
	<stop  offset="1" style="stop-color:#8ABFC4"/>
</linearGradient>
<path class="st1" d="M78.4,119.3c-0.6,0-1-0.5-1-1V60.9c0-0.6,0.5-1,1-1c0.6,0,1,0.5,1,1v57.3C79.4,118.8,79,119.3,78.4,119.3z
	 M75.5,118.2V67.4c0-0.6-0.5-1-1-1c-0.6,0-1,0.5-1,1v50.8c0,0.6,0.5,1,1,1C75.1,119.3,75.5,118.8,75.5,118.2z M71.6,118.2V52.7
	c0-0.6-0.5-1-1-1c-0.6,0-1,0.5-1,1v65.5c0,0.6,0.5,1,1,1C71.2,119.3,71.6,118.8,71.6,118.2z M67.7,118.2V52.7c0-0.6-0.5-1-1-1
	c-0.6,0-1,0.5-1,1v65.5c0,0.6,0.5,1,1,1C67.2,119.3,67.7,118.8,67.7,118.2z M63.8,118.2V78.1c0-0.6-0.5-1-1-1s-1,0.5-1,1v40.1
	c0,0.6,0.5,1,1,1S63.8,118.8,63.8,118.2z M59.9,118.2V64.6c0-0.6-0.5-1-1-1s-1,0.5-1,1v53.6c0,0.6,0.5,1,1,1S59.9,118.8,59.9,118.2z
	 M56,118.2V85.5c0-0.6-0.5-1-1-1c-0.6,0-1,0.5-1,1v32.8c0,0.6,0.5,1,1,1C55.5,119.3,56,118.8,56,118.2z M83.3,118.2V67.4
	c0-0.6-0.5-1-1-1c-0.6,0-1,0.5-1,1v50.8c0,0.6,0.5,1,1,1C82.9,119.3,83.3,118.8,83.3,118.2z M87.2,118.2V52.7c0-0.6-0.5-1-1-1
	c-0.6,0-1,0.5-1,1v65.5c0,0.6,0.5,1,1,1C86.8,119.3,87.2,118.8,87.2,118.2z M91.1,118.2V52.7c0-0.6-0.5-1-1-1c-0.6,0-1,0.5-1,1v65.5
	c0,0.6,0.5,1,1,1C90.7,119.3,91.1,118.8,91.1,118.2z M95.1,118.2V78.1c0-0.6-0.5-1-1-1s-1,0.5-1,1v40.1c0,0.6,0.5,1,1,1
	S95.1,118.8,95.1,118.2z M99,118.2V64.6c0-0.6-0.5-1-1-1c-0.6,0-1,0.5-1,1v53.6c0,0.6,0.5,1,1,1C98.5,119.3,99,118.8,99,118.2z
	 M102.9,118.2V85.5c0-0.6-0.5-1-1-1c-0.6,0-1,0.5-1,1v32.8c0,0.6,0.5,1,1,1C102.4,119.3,102.9,118.8,102.9,118.2z M110.7,118.2V70.5
	c0-0.6-0.5-1-1-1s-1,0.5-1,1v47.7c0,0.6,0.5,1,1,1S110.7,118.8,110.7,118.2z M114.6,118.2V70.5c0-0.6-0.5-1-1-1c-0.6,0-1,0.5-1,1
	v47.7c0,0.6,0.5,1,1,1C114.1,119.3,114.6,118.8,114.6,118.2z M34.3,118.2c0-0.6-0.5-1-1-1H5.1c-0.6,0-1,0.5-1,1c0,0.6,0.5,1,1,1
	h28.1C33.8,119.3,34.3,118.8,34.3,118.2z M34.3,114.3c0-0.6-0.5-1-1-1H5.1c-0.6,0-1,0.5-1,1c0,0.6,0.5,1,1,1h28.1
	C33.8,115.3,34.3,114.9,34.3,114.3z M34.3,110.4c0-0.6-0.5-1-1-1H5.1c-0.6,0-1,0.5-1,1s0.5,1,1,1h28.1
	C33.8,111.4,34.3,111,34.3,110.4z M34.3,106.5c0-0.6-0.5-1-1-1H5.1c-0.6,0-1,0.5-1,1c0,0.6,0.5,1,1,1h28.1
	C33.8,107.5,34.3,107.1,34.3,106.5z M34.3,102.6c0-0.6-0.5-1-1-1H5.1c-0.6,0-1,0.5-1,1c0,0.6,0.5,1,1,1h28.1
	C33.8,103.6,34.3,103.2,34.3,102.6z M34.3,98.7c0-0.6-0.5-1-1-1H5.1c-0.6,0-1,0.5-1,1s0.5,1,1,1h28.1C33.8,99.7,34.3,99.3,34.3,98.7
	z M34.3,94.8c0-0.6-0.5-1-1-1H5.1c-0.6,0-1,0.5-1,1s0.5,1,1,1h28.1C33.8,95.8,34.3,95.4,34.3,94.8z M34.3,90.9c0-0.6-0.5-1-1-1H5.1
	c-0.6,0-1,0.5-1,1c0,0.6,0.5,1,1,1h28.1C33.8,91.9,34.3,91.4,34.3,90.9z M34.3,87c0-0.6-0.5-1-1-1H5.1c-0.6,0-1,0.5-1,1
	c0,0.6,0.5,1,1,1h28.1C33.8,88,34.3,87.5,34.3,87z M34.3,83.1c0-0.6-0.5-1-1-1H5.1c-0.6,0-1,0.5-1,1s0.5,1,1,1h28.1
	C33.8,84.1,34.3,83.6,34.3,83.1z M34.3,79.2c0-0.6-0.5-1-1-1H5.1c-0.6,0-1,0.5-1,1c0,0.6,0.5,1,1,1h28.1
	C33.8,80.2,34.3,79.7,34.3,79.2z M34.3,75.3c0-0.6-0.5-1-1-1H5.1c-0.6,0-1,0.5-1,1c0,0.6,0.5,1,1,1h28.1
	C33.8,76.3,34.3,75.8,34.3,75.3z M38.4,71.3c0-0.6-0.5-1-1-1H1c-0.6,0-1,0.5-1,1c0,0.6,0.5,1,1,1h36.3
	C37.9,72.4,38.4,71.9,38.4,71.3z M38.4,67.4c0-0.6-0.5-1-1-1H1c-0.6,0-1,0.5-1,1c0,0.6,0.5,1,1,1h36.3C37.9,68.5,38.4,68,38.4,67.4z
	 M38.4,63.5c0-0.6-0.5-1-1-1H1c-0.6,0-1,0.5-1,1s0.5,1,1,1h36.3C37.9,64.6,38.4,64.1,38.4,63.5z M38.4,59.6c0-0.6-0.5-1-1-1H1
	c-0.6,0-1,0.5-1,1c0,0.6,0.5,1,1,1h36.3C37.9,60.7,38.4,60.2,38.4,59.6z M38.4,55.7c0-0.6-0.5-1-1-1H1c-0.6,0-1,0.5-1,1
	c0,0.6,0.5,1,1,1h36.3C37.9,56.7,38.4,56.3,38.4,55.7z M50.2,118.2c0-0.6-0.5-1-1-1H38.9c-0.6,0-1,0.5-1,1c0,0.6,0.5,1,1,1h10.3
	C49.7,119.3,50.2,118.8,50.2,118.2z M50.2,114.3c0-0.6-0.5-1-1-1H38.9c-0.6,0-1,0.5-1,1c0,0.6,0.5,1,1,1h10.3
	C49.7,115.3,50.2,114.9,50.2,114.3z M50.2,110.4c0-0.6-0.5-1-1-1H38.9c-0.6,0-1,0.5-1,1s0.5,1,1,1h10.3
	C49.7,111.4,50.2,111,50.2,110.4z M50.2,106.5c0-0.6-0.5-1-1-1H38.9c-0.6,0-1,0.5-1,1c0,0.6,0.5,1,1,1h10.3
	C49.7,107.5,50.2,107.1,50.2,106.5z M50.2,102.6c0-0.6-0.5-1-1-1H38.9c-0.6,0-1,0.5-1,1c0,0.6,0.5,1,1,1h10.3
	C49.7,103.6,50.2,103.2,50.2,102.6z M50.2,98.7c0-0.6-0.5-1-1-1H38.9c-0.6,0-1,0.5-1,1s0.5,1,1,1h10.3
	C49.7,99.7,50.2,99.3,50.2,98.7z M50.2,94.8c0-0.6-0.5-1-1-1H38.9c-0.6,0-1,0.5-1,1s0.5,1,1,1h10.3C49.7,95.8,50.2,95.4,50.2,94.8z
	 M50.2,90.9c0-0.6-0.5-1-1-1H38.9c-0.6,0-1,0.5-1,1c0,0.6,0.5,1,1,1h10.3C49.7,91.9,50.2,91.4,50.2,90.9z M50.2,87c0-0.6-0.5-1-1-1
	H38.9c-0.6,0-1,0.5-1,1c0,0.6,0.5,1,1,1h10.3C49.7,88,50.2,87.5,50.2,87z M50.2,83.1c0-0.6-0.5-1-1-1H38.9c-0.6,0-1,0.5-1,1
	s0.5,1,1,1h10.3C49.7,84.1,50.2,83.6,50.2,83.1z M50.2,79.2c0-0.6-0.5-1-1-1H38.9c-0.6,0-1,0.5-1,1c0,0.6,0.5,1,1,1h10.3
	C49.7,80.2,50.2,79.7,50.2,79.2z M50.2,75.3c0-0.6-0.5-1-1-1H43c-0.6,0-1,0.5-1,1c0,0.6,0.5,1,1,1h6.1
	C49.7,76.3,50.2,75.8,50.2,75.3z M50.2,71.3c0-0.6-0.5-1-1-1H43c-0.6,0-1,0.5-1,1c0,0.6,0.5,1,1,1h6.1
	C49.7,72.4,50.2,71.9,50.2,71.3z M50.2,67.4c0-0.6-0.5-1-1-1H43c-0.6,0-1,0.5-1,1c0,0.6,0.5,1,1,1h6.1C49.7,68.5,50.2,68,50.2,67.4z
	 M50.2,63.5c0-0.6-0.5-1-1-1H43c-0.6,0-1,0.5-1,1s0.5,1,1,1h6.1C49.7,64.6,50.2,64.1,50.2,63.5z M50.2,59.6c0-0.6-0.5-1-1-1H43
	c-0.6,0-1,0.5-1,1c0,0.6,0.5,1,1,1h6.1C49.7,60.7,50.2,60.2,50.2,59.6z M50.2,55.7c0-0.6-0.5-1-1-1H43c-0.6,0-1,0.5-1,1
	c0,0.6,0.5,1,1,1h6.1C49.7,56.7,50.2,56.3,50.2,55.7z M50.2,51.8c0-0.6-0.5-1-1-1H43c-0.6,0-1,0.5-1,1c0,0.6,0.5,1,1,1h6.1
	C49.7,52.8,50.2,52.4,50.2,51.8z M50.2,47.9c0-0.6-0.5-1-1-1H43c-0.6,0-1,0.5-1,1c0,0.6,0.5,1,1,1h6.1
	C49.7,48.9,50.2,48.5,50.2,47.9z M50.2,44c0-0.6-0.5-1-1-1H20c-0.6,0-1,0.5-1,1c0,0.6,0.5,1,1,1h29.1C49.7,45,50.2,44.6,50.2,44z
	 M50.2,40.1c0-0.6-0.5-1-1-1H20c-0.6,0-1,0.5-1,1c0,0.6,0.5,1,1,1h29.1C49.7,41.1,50.2,40.7,50.2,40.1z M50.2,36.2c0-0.6-0.5-1-1-1
	H20c-0.6,0-1,0.5-1,1s0.5,1,1,1h29.1C49.7,37.2,50.2,36.8,50.2,36.2z M50.2,32.3c0-0.6-0.5-1-1-1H20c-0.6,0-1,0.5-1,1
	c0,0.6,0.5,1,1,1h29.1C49.7,33.3,50.2,32.8,50.2,32.3z M50.2,28.4c0-0.6-0.5-1-1-1H34.6c-0.6,0-1,0.5-1,1c0,0.6,0.5,1,1,1h14.5
	C49.7,29.4,50.2,28.9,50.2,28.4z M47.9,24.5c0-0.6-0.5-1-1-1h-5c-0.6,0-1,0.5-1,1c0,0.6,0.5,1,1,1h5C47.4,25.5,47.9,25,47.9,24.5z
	 M47.9,20.6c0-0.6-0.5-1-1-1h-5c-0.6,0-1,0.5-1,1c0,0.6,0.5,1,1,1h5C47.4,21.6,47.9,21.1,47.9,20.6z M47.9,16.7c0-0.6-0.5-1-1-1h-5
	c-0.6,0-1,0.5-1,1c0,0.6,0.5,1,1,1h5C47.4,17.7,47.9,17.2,47.9,16.7z M47.9,12.7c0-0.6-0.5-1-1-1h-2.5c-0.6,0-1,0.5-1,1s0.5,1,1,1
	h2.5C47.4,13.8,47.9,13.3,47.9,12.7z M47.9,8.8c0-0.6-0.5-1-1-1h-2.5c-0.6,0-1,0.5-1,1s0.5,1,1,1h2.5C47.4,9.9,47.9,9.4,47.9,8.8z
	 M47.9,4.9c0-0.6-0.5-1-1-1h-2.5c-0.6,0-1,0.5-1,1s0.5,1,1,1h2.5C47.4,6,47.9,5.5,47.9,4.9z M47.9,1c0-0.6-0.5-1-1-1h-2.5
	c-0.6,0-1,0.5-1,1s0.5,1,1,1h2.5C47.4,2.1,47.9,1.6,47.9,1z M34.3,51.8c0-0.6-0.5-1-1-1H5.1c-0.6,0-1,0.5-1,1c0,0.6,0.5,1,1,1h28.1
	C33.8,52.8,34.3,52.4,34.3,51.8z M106.8,118.2V88.3c0-0.6-0.5-1-1-1s-1,0.5-1,1v29.9c0,0.6,0.5,1,1,1S106.8,118.8,106.8,118.2z
	 M123.6,118.3V51.8h29v9.4h-15.4v17.7H149v9.4h-11.9v20.9h15.6v9.2H123.6z M178,119.3c-4.9,0-8.8-0.9-11.7-2.8
	c-2.9-1.9-4.9-4.4-6-7.8c-1.1-3.3-1.7-7.2-1.7-11.5V73.3c0-4.6,0.6-8.6,1.7-11.9c1.1-3.3,3.2-5.9,6-7.7S173.1,51,178,51
	c4.8,0,8.5,0.8,11.2,2.4c2.7,1.6,4.6,3.8,5.7,6.7c1.1,2.9,1.7,6.3,1.7,10.1v5.6h-13.1v-6.2c0-1.5-0.1-3-0.2-4.3
	c-0.2-1.3-0.6-2.4-1.4-3.3c-0.7-0.8-2-1.3-3.8-1.3c-1.8,0-3.1,0.4-3.9,1.3c-0.8,0.9-1.3,2-1.6,3.4c-0.2,1.4-0.3,2.9-0.3,4.6v30.2
	c0,1.9,0.1,3.5,0.5,4.9c0.3,1.4,0.9,2.5,1.7,3.2c0.8,0.7,2.1,1.1,3.7,1.1c1.8,0,3-0.4,3.7-1.3c0.7-0.8,1.2-2,1.4-3.4
	c0.2-1.4,0.3-2.9,0.3-4.5v-6.5h13.1v5.5c0,3.9-0.5,7.3-1.6,10.3c-1.1,3-3,5.3-5.7,7.1C186.7,118.4,182.9,119.3,178,119.3z
	 M205.1,118.3V51.8h13.5v66.5H205.1z M246,119.3c-4.1,0-7.5-0.8-10.3-2.3c-2.7-1.5-4.8-3.8-6.2-6.8c-1.4-3-2.2-6.9-2.4-11.6l11.7-2
	c0.1,2.7,0.4,5,0.9,6.9c0.5,1.8,1.2,3.2,2.1,4.1c1,0.9,2.1,1.4,3.6,1.4c1.8,0,2.9-0.5,3.6-1.6c0.6-1.1,0.9-2.4,0.9-3.8
	c0-2.8-0.7-5.1-2-7c-1.3-1.9-3.1-3.8-5.3-5.7l-6.9-6c-2.5-2.1-4.5-4.4-6-7.1c-1.6-2.6-2.3-5.9-2.3-9.7c0-5.5,1.6-9.7,4.8-12.6
	c3.2-2.9,7.6-4.4,13.2-4.4c3.3,0,6.1,0.5,8.2,1.6c2.1,1.1,3.8,2.6,5,4.4c1.2,1.8,2,3.8,2.5,6c0.5,2.2,0.8,4.3,0.9,6.4l-11.6,1.7
	c-0.1-2-0.3-3.8-0.5-5.3c-0.2-1.5-0.7-2.7-1.5-3.6c-0.7-0.9-1.8-1.3-3.3-1.3c-1.6,0-2.8,0.6-3.5,1.8c-0.8,1.2-1.1,2.5-1.1,3.9
	c0,2.4,0.5,4.3,1.6,5.8c1.1,1.5,2.5,3.1,4.4,4.7l6.7,5.9c2.8,2.4,5.2,5.2,7.2,8.3c2,3.1,3,6.9,3,11.5c0,3.1-0.7,5.9-2.1,8.5
	c-1.4,2.5-3.4,4.5-6,5.9C252.5,118.5,249.5,119.3,246,119.3z M275.4,51c-1.7,0-3.1,0.3-4.1,1c-1.1,0.6-1.8,1.6-2.3,2.8
	c-0.5,1.2-0.7,2.8-0.7,4.7v0.7h2.7v-0.7c0-1.2,0.1-2.3,0.4-3.2c0.3-1,0.7-1.7,1.4-2.2c0.7-0.5,1.6-0.8,2.8-0.8c1.4,0,2.4,0.5,3,1.4
	c0.7,0.9,1,2.2,1,3.8c0,1.2-0.2,2.2-0.5,3.2c-0.3,0.9-0.8,1.8-1.3,2.7c-0.5,0.9-1.1,1.7-1.7,2.7L268,79.4v2h13.6V79h-10.5l7.5-11.3
	c0.6-0.9,1.2-1.9,1.7-2.8c0.5-0.9,1-1.9,1.3-2.9c0.3-1,0.5-2.1,0.5-3.3c0-2.4-0.6-4.3-1.7-5.6C279.4,51.7,277.7,51,275.4,51z
	 M299.3,55.2c-0.5-1.3-1.2-2.4-2.2-3.1c-1-0.7-2.4-1.1-4.2-1.1c-1.7,0-3.1,0.4-4.2,1.1s-1.8,1.8-2.3,3.1c-0.5,1.3-0.7,2.8-0.7,4.6
	v13.1c0,1.7,0.2,3.2,0.7,4.6s1.2,2.4,2.2,3.2c1,0.8,2.4,1.1,4.2,1.1c1.8,0,3.2-0.4,4.3-1.1c1-0.8,1.8-1.8,2.2-3.1
	c0.4-1.3,0.7-2.9,0.7-4.6V59.8C300,58.1,299.8,56.5,299.3,55.2z M288.9,56.3c0.3-1,0.7-1.7,1.3-2.3c0.6-0.6,1.5-0.9,2.7-0.9
	c1.2,0,2.1,0.3,2.7,0.9c0.6,0.6,1.1,1.3,1.3,2.3c0.3,1,0.4,2.1,0.4,3.3v1l-8.8,8.8v-9.8C288.5,58.4,288.6,57.3,288.9,56.3z
	 M296.9,76.4c-0.3,1-0.7,1.8-1.3,2.3c-0.6,0.6-1.5,0.9-2.7,0.9c-1.1,0-2-0.3-2.6-0.9c-0.6-0.6-1.1-1.4-1.4-2.3
	c-0.3-1-0.4-2.1-0.4-3.3v-0.7l8.8-8.8v9.5C297.3,74.3,297.1,75.4,296.9,76.4z"/>
</svg>
